PathFileType	4	(X/Y/Z)	C:\Users\Graham\Documents\MATLAB\MOtoNMS_v2_2\MyData\ElaboratedData\S7\22-05-17\staticElaborations\Static1\Static\\Static1.trc
DataRate	CameraRate	NumFrames	NumMarkers	Units	OrigDataRate	DataStartFrame
100	100	8	38	mm	100	2
Frame#	Time	V_Sacral			R_ASIS			L_ASIS			R_Knee_Lat			R_Knee_Med			R_Thigh_Upper			R_Thigh_Front			R_Thigh_Rear			L_Knee_Lat			L_Knee_Med			L_Thigh_Upper			L_Thigh_Front			L_Thigh_Rear			R_Ankle_Lat			R_Ankle_Med			R_Shank_Upper			R_Shank_Front			R_Shank_Rear			L_Ankle_Lat			L_Ankle_Med			L_Shank_Upper			L_Shank_Front			L_Shank_Rear			R_Heel			R_MTP1			R_MTP5			L_Heel			L_MTP1			L_MTP5			Clavicle			R_Acromium			L_Acromium			LAJC			RAJC			LHJC			RHJC			LKJC			RKJC		
		X1	Y1	Z1	X2	Y2	Z2	X3	Y3	Z3	X4	Y4	Z4	X5	Y5	Z5	X6	Y6	Z6	X7	Y7	Z7	X8	Y8	Z8	X9	Y9	Z9	X10	Y10	Z10	X11	Y11	Z11	X12	Y12	Z12	X13	Y13	Z13	X14	Y14	Z14	X15	Y15	Z15	X16	Y16	Z16	X17	Y17	Z17	X18	Y18	Z18	X19	Y19	Z19	X20	Y20	Z20	X21	Y21	Z21	X22	Y22	Z22	X23	Y23	Z23	X24	Y24	Z24	X25	Y25	Z25	X26	Y26	Z26	X27	Y27	Z27	X28	Y28	Z28	X29	Y29	Z29	X30	Y30	Z30	X31	Y31	Z31	X32	Y32	Z32	X33	Y33	Z33	X34	Y34	Z34	X35	Y35	Z35	X36	Y36	Z36	X37	Y37	Z37	X38	Y38	Z38	

220	2.190000	-339.218300	1052.772807	4.902715	-145.164020	1018.900518	145.483975	-171.136312	1015.262464	-126.388748	-208.727192	518.296363	171.703515	-208.762133	513.045088	59.353639	-129.348623	802.076340	106.461826	-155.151500	687.663166	72.464339	-133.867903	687.449527	148.569055	-231.157137	513.771667	-133.930797	-226.231209	508.201381	-16.822431	-138.749239	805.051856	-77.089630	-160.276299	690.759344	-31.090181	-143.949312	681.104980	-101.168762	-309.579057	82.152447	165.306588	-259.751103	82.204531	90.161444	-183.119118	348.208349	147.890732	-219.865720	242.866677	105.075625	-234.572046	242.183557	180.058354	-297.013264	71.032809	-107.063414	-255.240258	88.794032	-29.667564	-199.712388	332.372760	-107.205740	-221.382086	221.101538	-60.632019	-236.858285	221.683220	-131.309047	-352.651049	36.290519	102.749199	-139.814986	55.288560	168.665011	-164.565855	47.055045	227.834858	-343.417362	32.777620	-45.663455	-121.239528	52.286112	-95.192893	-156.461207	43.494559	-160.652213	-140.577704	1403.830731	3.527051	-233.733866	1470.254945	195.581043	-239.001695	1474.249219	-193.703544	-276.126761	79.913420	-68.365489	-284.665080	82.178489	127.734016	-238.359015	935.390943	-79.583543	-219.828992	937.986524	114.384996	-228.694173	510.986524	-75.376614	-208.744662	515.670726	115.528577	
221	2.200000	-339.158971	1052.746778	4.872649	-145.085177	1018.888693	145.435179	-171.072130	1015.227120	-126.428508	-208.684328	518.286300	171.678797	-208.715499	513.035153	59.328870	-129.311917	802.056682	106.418423	-155.102480	687.650596	72.431005	-133.814693	687.432984	148.530701	-231.023298	513.742221	-133.879870	-226.128711	508.263464	-16.798708	-138.763464	805.058404	-77.089025	-160.210069	690.756572	-31.058046	-143.860816	681.088403	-101.123170	-309.575034	82.149081	165.300724	-259.747908	82.200767	90.158789	-183.091161	348.197162	147.882651	-219.845249	242.852520	105.063005	-234.554841	242.172835	180.045958	-297.004320	71.040025	-107.024229	-255.223841	88.773891	-29.620809	-199.623363	332.355262	-107.113542	-221.332839	221.084672	-60.532278	-236.759157	221.660434	-131.226389	-352.628959	36.284541	102.751141	-139.816555	55.289472	168.664639	-164.567785	47.054554	227.834661	-343.406738	32.780185	-45.651423	-121.213515	52.265530	-95.178825	-156.444034	43.493417	-160.636025	-140.500302	1403.791680	3.429606	-233.598363	1470.227054	195.512542	-238.956646	1474.220742	-193.778469	-276.114081	79.906958	-68.322519	-284.661471	82.174924	127.729756	-238.292504	935.360548	-79.613795	-219.751985	937.972915	114.348685	-228.576005	511.002842	-75.339289	-208.699913	515.660727	115.503834	
222	2.210000	-339.115880	1052.714129	4.839471	-145.037900	1018.879451	145.411618	-171.008130	1015.191514	-126.450444	-208.651173	518.275952	171.662862	-208.668201	513.026040	59.314075	-129.260011	802.044761	106.413119	-155.053290	687.638240	72.418537	-133.776685	687.419672	148.522094	-230.892209	513.714844	-133.829587	-226.022746	508.338481	-16.780851	-138.889296	805.049939	-77.077873	-160.143004	690.749160	-31.018080	-143.771236	681.071424	-101.069186	-309.571273	82.144557	165.294607	-259.743040	82.196531	90.156993	-183.067170	348.186554	147.881232	-219.824492	242.839029	105.055526	-234.541478	242.162452	180.038617	-296.994230	71.047916	-106.990115	-255.207018	88.755529	-29.577800	-199.535850	332.337879	-107.029132	-221.286098	221.068239	-60.438988	-236.666949	221.636356	-131.140911	-352.608052	36.279011	102.753026	-139.818518	55.290804	168.665124	-164.569970	47.054037	227.835007	-343.396460	32.783159	-45.640170	-121.190061	52.243480	-95.166316	-156.427624	43.491569	-160.619831	-140.425222	1403.748910	3.331934	-233.455829	1470.204644	195.441107	-238.906949	1474.186258	-193.857603	-276.100624	79.901723	-68.283957	-284.657156	82.170544	127.725800	-238.228369	935.326072	-79.632767	-219.699767	937.957251	114.328705	-228.457478	511.026662	-75.305219	-208.659687	515.650996	115.488469	
223	2.220000	-339.085472	1052.679947	4.803167	-145.019658	1018.873131	145.411418	-170.943378	1015.157318	-126.455635	-208.629688	518.266440	171.655751	-208.622340	513.018448	59.309353	-129.180931	802.043411	106.446024	-155.006288	687.627127	72.425196	-133.754118	687.410296	148.540757	-230.774297	513.691203	-133.783618	-225.924187	508.418162	-16.769408	-139.104197	805.026913	-77.059510	-160.079743	690.736745	-30.974653	-143.687923	681.053788	-101.012446	-309.568162	82.139308	165.288720	-259.735355	82.192077	90.156080	-183.049071	348.177384	147.886395	-219.804800	242.827235	105.053509	-234.533809	242.153323	180.036404	-296.984591	71.055676	-106.962109	-255.191839	88.739644	-29.541008	-199.457260	332.322192	-106.957420	-221.245212	221.053691	-60.357545	-236.587634	221.614384	-131.063521	-352.589584	36.274145	102.754662	-139.820815	55.292698	168.666517	-164.572279	47.053612	227.835921	-343.387115	32.786500	-45.630502	-121.169987	52.222545	-95.156254	-156.412725	43.488940	-160.604785	-140.350796	1403.705115	3.236988	-233.309663	1470.190054	195.367706	-238.848011	1474.148442	-193.939241	-276.088215	79.897660	-68.251559	-284.651759	82.165692	127.722400	-238.167014	935.290789	-79.641497	-219.671600	937.941855	114.323487	-228.349242	511.054683	-75.276513	-208.626014	515.642444	115.482552	
224	2.230000	-339.064662	1052.648891	4.764786	-145.027028	1018.869586	145.430879	-170.878515	1015.125736	-126.446236	-208.621546	518.258716	171.657035	-208.580986	513.012929	59.314104	-129.064761	802.054866	106.514085	-154.965419	687.618126	72.447653	-133.747029	687.405142	148.581585	-230.675870	513.672231	-133.743850	-225.841756	508.494446	-16.763120	-139.376397	804.992061	-77.036051	-160.025131	690.720087	-30.930617	-143.616534	681.035777	-100.956593	-309.566135	82.133660	165.283574	-259.724393	82.187661	90.156084	-183.038717	348.170332	147.897566	-219.787836	242.817931	105.056899	-234.533464	242.146055	180.039048	-296.976451	71.062757	-106.940334	-255.179641	88.726502	-29.511485	-199.392120	332.309118	-106.900072	-221.212275	221.041824	-60.290468	-236.523922	221.596927	-131.001808	-352.574364	36.269909	102.756029	-139.823436	55.295264	168.668794	-164.574592	47.053378	227.837433	-343.379124	32.790020	-45.622870	-121.153674	52.204608	-95.148741	-156.399878	43.485858	-160.591488	-140.274923	1403.662511	3.147524	-233.162444	1470.184637	195.293760	-238.775732	1474.110005	-194.021165	-276.078046	79.894629	-68.225910	-284.645264	82.160660	127.719829	-238.109983	935.257650	-79.641571	-219.666121	937.928717	114.330403	-228.258813	511.083338	-75.253485	-208.601266	515.635823	115.485569	
225	2.240000	-339.051090	1052.624659	4.726143	-145.056129	1018.868225	145.465078	-170.815424	1015.097372	-126.425170	-208.627810	518.253449	171.665843	-208.547636	513.009824	59.327126	-128.905620	802.080354	106.611543	-154.935368	687.611787	72.481586	-133.755179	687.404060	148.637787	-230.599369	513.658128	-133.710557	-225.781574	508.560447	-16.759370	-139.670761	804.949601	-77.008541	-159.983684	690.700719	-30.887384	-143.560828	681.017987	-100.903376	-309.565555	82.127836	165.279605	-259.710462	82.183528	90.157036	-183.037565	348.165819	147.913719	-219.775296	242.811599	105.065249	-234.541538	242.140920	180.045958	-296.970303	71.068871	-106.924147	-255.171021	88.715985	-29.489020	-199.342241	332.298959	-106.855921	-221.188196	221.032830	-60.237629	-236.475629	221.585229	-130.959483	-352.562715	36.266083	102.757252	-139.826412	55.298557	168.671851	-164.576807	47.053405	227.839555	-343.372701	32.793446	-45.617396	-121.141065	52.190723	-95.143300	-156.389344	43.482841	-160.580042	-140.195275	1403.622579	3.065873	-233.015773	1470.188559	195.220973	-238.686872	1474.073282	-194.100947	-276.070662	79.892428	-68.206584	-284.638009	82.155682	127.718321	-238.059575	935.228932	-79.634934	-219.681511	937.919261	114.346158	-228.190471	511.109287	-75.234964	-208.587723	515.631637	115.496484	
226	2.250000	-339.043270	1052.609657	4.689417	-145.103078	1018.868163	145.508622	-170.756762	1015.072220	-126.395716	-208.648715	518.250954	171.680955	-208.525602	513.009232	59.346793	-128.703540	802.119786	106.730625	-154.920625	687.608273	72.522378	-133.778001	687.406526	148.702031	-230.544124	513.648479	-133.682793	-225.747113	508.610991	-16.754758	-139.954743	804.904337	-76.977256	-159.959090	690.680533	-30.845206	-143.522709	681.001118	-100.853016	-309.566621	82.121959	165.277112	-259.694506	82.179887	90.158931	-183.046437	348.163975	147.933521	-219.768632	242.808383	105.077780	-234.558407	242.137865	180.056315	-296.966164	71.073946	-106.912389	-255.165917	88.707700	-29.472467	-199.307253	332.291536	-106.821774	-221.172912	221.026433	-60.196867	-236.440440	221.579443	-130.936664	-352.554516	36.262348	102.758547	-139.829806	55.302568	168.675506	-164.578845	47.053717	227.842264	-343.367863	32.796483	-45.613925	-121.131744	52.181163	-95.139119	-156.381107	43.480434	-160.570174	-140.109522	1403.585941	2.993791	-232.870302	1470.200818	195.151117	-238.579303	1474.039936	-194.176278	-276.066041	79.890823	-68.192428	-284.630564	82.150923	127.718021	-238.018393	935.206025	-79.623640	-219.715700	937.914250	114.367268	-228.145618	511.129735	-75.218775	-208.587159	515.630093	115.513874	
227	2.260000	-339.040617	1052.604882	4.656723	-145.164382	1018.868410	145.556388	-170.705448	1015.049763	-126.361055	-208.683588	518.251184	171.700947	-208.517437	513.011009	59.371286	-128.465835	802.171598	106.862359	-154.924624	687.607383	72.565777	-133.814575	687.411781	148.767565	-230.507426	513.642438	-133.658902	-225.739415	508.642744	-16.745741	-140.203033	804.860830	-76.942066	-159.953807	690.661383	-30.803574	-143.502484	680.985807	-100.804732	-309.569317	82.116067	165.276222	-259.677826	82.176871	90.161695	-183.065382	348.164650	147.955530	-219.768837	242.808107	105.093497	-234.583667	242.136586	180.069181	-296.963718	71.078062	-106.903677	-255.163785	88.701102	-29.460155	-199.285334	332.286358	-106.793443	-221.165663	221.022065	-60.164847	-236.414864	221.578888	-130.930764	-352.549317	36.258369	102.760160	-139.833700	55.307217	168.679530	-164.580658	47.054297	227.845495	-343.364473	32.798864	-45.612114	-121.125066	52.175577	-95.135290	-156.374924	43.479099	-160.561395	-140.015563	1403.552408	2.932378	-232.725906	1470.219471	195.085825	-238.452129	1474.010799	-194.245255	-276.063752	79.889582	-68.181916	-284.623571	82.146469	127.718959	-237.988903	935.189383	-79.609570	-219.766572	937.913806	114.390539	-228.123420	511.142591	-75.202321	-208.600513	515.631096	115.536117	
